<?xml version="1.0" encoding="UTF-8" standalone="no"?>
<!-- Generator: Adobe Illustrator 16.0.0, SVG Export Plug-In . SVG Version: 6.00 Build 0)  -->

<svg
   version="1.1"
   id="Layer_1"
   x="0px"
   y="0px"
   width="999.40533"
   height="373.08698"
   viewBox="-194 189.695 999.40533 373.08697"
   enable-background="new -194 189.695 1000 412.609"
   xml:space="preserve"
   xmlns="http://www.w3.org/2000/svg"
   xmlns:svg="http://www.w3.org/2000/svg"><defs
   id="defs31" />
<path
   fill="#4c97a6"
   d="M 110.73529,209.95218 130.8862,189.695 151.03913,209.95218 130.8862,230.20631 110.73529,209.95218"
   id="path4"
   style="display:inline;fill:#00b6e6;fill-opacity:1;stroke-width:1.00919" /><path
   fill="#4c97a6"
   d="M -104.32854,421.8138 C -137.65624,421.8138 -164.76733,394.52889 -164.76733,360.99597 -164.76733,327.46405 -137.65624,300.17914 -104.32854,300.17914 -71.000848,300.17914 -43.883754,327.46104 -43.883754,360.99597 -43.883754,394.52889 -70.976831,421.81681 -104.33254,421.81681 M -104.33155,271.7904 C -121.75847,271.7904 -137.39504,278.01835 -152.51825,284.09192 -154.71387,284.97318 -156.9035,285.8424 -159.09212,286.70261 L -165.66699,289.26116 V 195.45681 H -186.22423 C -190.52542,195.46583 -194.006,198.96378 -193.99999,203.27383 V 359.69564 C -193.99999,374.33014 -190.96775,387.89489 -185.02434,400.00191 -169.78404,430.67852 -138.56691,450.1073 -104.36357,450.20255 -55.418301,450.20255 -15.591789,410.18602 -15.591789,360.99597 -15.592789,311.80794 -55.380272,271.7904 -104.33155,271.7904"
   id="path6"
   style="display:inline;fill:#00b6e6;fill-opacity:1;stroke-width:1.00165" /><path
   fill="#c0555b"
   d="M 805.40536,284.56353 782.87293,267.70927 731.61647,336.09804 680.37003,267.70927 657.83359,284.56353 714.0303,359.56116 657.83359,434.56882 680.37003,451.42308 731.61647,383.0293 782.87293,451.42308 805.40536,434.56882 749.20263,359.56116 805.40536,284.56353"
   id="path12"
   style="display:inline;fill:#eb123f;fill-opacity:1;stroke-width:1.00224" /><path
   id="path14"
   d="M 330.31322,515.32115 C 328.76853,515.32115 327.95457,516.19065 327.95457,517.76687 L 327.94454,554.19089 C 327.94454,555.81868 328.73531,556.63998 330.30315,556.63998 H 342.80822 C 350.47763,556.63998 357.0404,552.90742 357.0404,544.643 357.0404,540.45234 354.88873,536.25954 350.41848,534.92052 V 534.79966 C 353.55847,533.10741 355.41717,529.78933 355.41717,525.94504 355.41717,519.16229 350.06589,515.32115 342.63234,515.32115 Z M 363.93984,515.32115 C 362.07868,515.32115 361.3252,516.60148 362.31326,518.23185 L 374.39787,539.36546 374.37776,554.21103 C 374.37776,555.8414 375.19233,556.65676 376.81847,556.65676 H 379.47528 C 381.01996,556.65676 381.83223,555.84055 381.83223,554.21103 V 539.36546 L 393.97548,518.23185 C 394.9052,516.60062 394.20791,515.32115 392.29531,515.32115 H 389.03711 C 387.81575,515.25497 386.68885,515.98512 386.24629,517.12732 L 380.67636,527.49438 C 379.40014,530.07443 378.1804,533.02538 378.1804,533.02538 H 378.06144 C 378.06144,533.02538 376.83577,530.05553 375.56209,527.49438 L 369.98047,517.12732 C 369.53963,515.98427 368.41266,515.25497 367.19133,515.32115 Z M 335.33198,521.76699 H 342.50501 C 345.97006,521.76699 347.73822,523.91035 347.73822,526.89176 347.73822,529.87317 345.93406,532.20454 342.68258,532.20454 L 335.33198,532.18608 Z M 335.3303,538.26095 H 343.38115 C 347.15752,538.26095 349.36649,540.70877 349.36649,544.19984 349.36649,547.69005 347.21496,550.19246 343.38115,550.19246 V 550.1891 H 335.3303 Z"
   style="display:inline;stroke-width:0.858562" />
<path
   fill="#4c97a6"
   d="M 29.830821,297.16007 V 271.82284 H 9.2337241 C 4.9285974,271.82384 1.4388204,275.3184 1.4348138,279.63293 V 450.39706 H 30.170383 V 358.63705 C 31.940313,326.12011 58.59043,300.39554 90.84282,299.93688 L 100.04907,299.80642 V 271.80277 L 90.405096,271.89409 C 67.992995,272.20521 46.508429,281.23981 29.823809,297.15505"
   id="path1011"
   style="display:inline;fill:#00b6e6;fill-opacity:1;stroke-width:1.00264" /><path
   fill="#4c97a6"
   d="M 233.94849,411.40281 C 228.57923,408.02581 224.6172,402.81281 222.79549,396.73281 221.48413,392.59281 221.48413,388.41181 221.48413,383.96581 V 300.12411 H 273.52924 V 271.83411 H 221.46616 V 195.45681 H 200.9619 C 196.68127,195.47281 193.21663,198.94681 193.20763,203.23281 V 271.85111 H 161.86424 V 300.14511 H 193.20763 V 389.71981 C 193.20763,392.82581 193.9467,420.49881 219.46666,435.72081 239.08105,447.41681 261.84647,452.70181 262.80627,452.92381 L 271.76502,454.99281 278.05612,427.39181 269.09836,425.31981 C 268.28039,425.13481 249.06252,420.60781 233.94849,411.40281"
   id="path1032"
   style="display:inline;fill:#00b6e6;fill-opacity:1;stroke-width:0.999372" /><path
   fill="#4c97a6"
   d="M 145.04782,271.82284 H 124.45073 C 120.1456,271.82384 116.65582,275.3184 116.65182,279.63293 V 450.39705 H 145.04782"
   id="path1392"
   style="display:inline;fill:#00b6e6;fill-opacity:1;stroke-width:1.00264" /><path
   fill="#4c97a6"
   d="M 377.75054,420.25098 C 344.3802,420.25098 317.23442,392.99141 317.23442,359.48963 317.23442,325.98885 344.3802,298.72928 377.75054,298.72928 411.12089,298.72928 438.27267,325.98584 438.27267,359.48963 438.27267,392.99141 411.14493,420.25398 377.74654,420.25398 M 377.74753,270.3669 C 360.29831,270.3669 344.64174,276.58907 329.49918,282.657 327.30075,283.53744 325.10831,284.40585 322.91689,285.26526 L 316.33361,287.82144 V 194.1042 H 295.75007 C 291.44338,194.11321 287.95834,197.60791 287.96436,201.91396 V 358.19051 C 287.96436,372.81141 291.00048,386.36357 296.95149,398.45934 312.21129,429.10746 343.46837,448.5182 377.71547,448.61336 426.72336,448.61336 466.60083,408.634 466.60083,359.48963 466.59983,310.34728 426.76144,270.3669 377.74753,270.3669"
   id="path2126"
   style="display:inline;fill:#eb123f;fill-opacity:1;stroke-width:1.00182" /><path
   id="path5837"
   style="display:inline;fill:#eb123f;fill-opacity:1;stroke-width:1.00236"
   d="M 572.71066,270.36647 C 523.69675,270.36647 483.53001,310.38966 483.52902,359.58522 483.52901,408.78279 523.68519,448.80592 572.69308,448.80592 621.70097,448.80592 661.89036,408.78279 661.89035,359.58522 661.88936,310.38966 621.72457,270.36647 572.71066,270.36647 Z M 572.71066,298.761 C 606.08101,298.761 633.56222,326.04515 633.56222,359.58522 633.56222,393.12326 606.09147,420.41529 572.69308,420.41529 539.29469,420.41529 511.85715,393.12326 511.85715,359.58522 511.85715,326.04515 539.34031,298.761 572.71066,298.761 Z" /><path
   id="path16022"
   d="M 701.10958,506.60583 C 700.39526,506.56738 699.67691,506.61402 698.96991,506.74852 696.06625,507.25816 693.79504,509.53984 693.29537,512.44905 693.21639,512.91745 693.18442,513.3897 693.12435,513.86413 L 693.12937,514.04205 C 693.18345,514.54655 693.21283,515.05091 693.30041,515.55112 693.56743,517.36025 694.57228,518.9788 696.07561,520.01788 698.22804,521.49612 700.96328,521.83768 703.4136,520.93439 705.53254,520.307 707.17548,518.62514 707.755,516.49113 708.33111,514.60207 708.20636,512.56861 707.4079,510.76206 706.65666,508.9323 705.11727,507.54224 703.22245,506.98016 702.53346,506.76917 701.8239,506.64429 701.10958,506.60583 Z M 733.08747,510.45487 C 732.13983,510.37558 731.18425,510.385 730.2351,510.4834 729.31215,510.56678 728.39754,510.70363 727.49176,510.90475 727.07966,511.00186 726.68307,511.15107 726.30787,511.34789 725.01489,511.90309 724.20508,513.2059 724.27719,514.6111 V 541.50569 C 724.27719,542.82923 724.24981,544.15879 724.16651,545.48062 724.09441,546.98293 723.72865,548.45669 723.09334,549.82149 722.09224,552.06549 719.98877,553.61995 717.5496,553.91561 716.44378,554.09265 715.32012,554.10786 714.2143,553.96261 713.03122,553.84143 711.89837,553.43327 710.90418,552.77751 709.06944,551.52874 707.99995,549.42952 708.06691,547.20958 708.03085,542.25487 708.06691,537.29525 708.06691,532.33883 V 527.63034 C 708.12271,527.11124 707.81598,526.62066 707.32574,526.44189 707.13255,526.39205 706.93211,526.36796 706.7338,526.37139 H 694.32664 C 694.27598,526.36881 694.22302,526.37208 694.17236,526.3781 693.57741,526.43484 693.14479,526.96347 693.20146,527.55649 V 544.94179 C 693.20748,546.81365 693.46959,548.67392 693.97786,550.47447 694.97721,554.28095 697.42929,557.54039 700.80943,559.55235 703.75511,561.24889 707.0401,562.27991 710.42627,562.57384 L 711.79123,562.73834 716.82518,562.72491 718.10129,562.55706 C 719.833,562.35165 721.54033,561.97146 723.19562,561.424 725.58584,560.66253 727.84062,559.52965 729.87626,558.06343 730.30467,557.74802 730.69184,557.4406 731.05845,557.15699 731.82685,557.69585 732.56175,558.26247 733.34903,558.75837 735.37695,559.99254 737.57212,560.92965 739.86704,561.53815 741.40301,561.96442 742.96135,562.27267 744.55053,562.44627 745.40736,562.54338 746.30495,562.59467 747.18155,562.67288 L 747.62425,562.72491 H 750.59061 C 750.95206,562.68795 751.31155,562.61916 751.67387,562.61916 754.6754,562.42063 757.61834,561.70072 760.37346,560.49405 764.57526,558.72102 768.12144,555.68272 770.51853,551.79888 770.5417,551.77138 770.55816,551.7441 770.58392,551.71831 L 770.77507,551.99528 C 772.36512,554.38539 773.93336,556.79421 775.51225,559.16627 776.67816,561.2126 778.79666,562.53192 781.14652,562.67288 781.24783,562.67803 781.34962,562.72491 781.44834,562.72491 H 784.37951 L 785.73275,562.4983 C 787.42669,562.24476 788.98173,561.4061 790.12448,560.12811 790.67825,559.48181 791.19372,558.79625 791.64875,558.07518 796.78977,549.81076 801.07517,541.04415 804.44156,531.90912 804.75495,531.08576 805.02969,530.24873 805.26323,529.3996 805.29673,529.32483 805.31821,529.24456 805.33365,529.16291 805.43755,528.58537 805.05547,528.03395 804.4768,527.93082 L 804.26716,527.86368 801.82231,527.10494 C 800.4658,526.68468 799.10943,526.23111 797.73746,525.87788 797.63099,525.83319 797.51963,525.80189 797.40542,525.78556 796.68595,525.68587 796.02186,526.18747 795.92139,526.90855 794.72199,530.87661 793.33713,534.78856 791.77283,538.62857 790.21627,542.57512 788.43649,546.42776 786.44206,550.17065 L 786.26598,550.46104 785.99936,549.97424 C 783.16013,544.90953 780.34704,539.82929 777.46747,534.79295 776.05084,532.32118 774.50896,529.9195 772.9919,527.50444 772.4158,526.54616 771.45989,525.87859 770.35921,525.66973 769.59682,525.55886 768.82329,525.58694 768.06861,525.75366 765.24999,526.21863 762.66676,527.61469 760.72729,529.71518 759.42827,530.98286 759.10418,532.94714 759.92238,534.56633 760.21172,535.23756 760.63122,535.83946 760.97379,536.48833 761.39706,537.19739 761.7791,537.9294 762.1191,538.68227 763.10298,541.00105 763.27571,543.58309 762.61375,546.01274 761.67451,549.35684 759.43675,551.51106 756.29699,552.79765 754.74302,553.40959 753.0997,553.76193 751.43241,553.8367 749.75564,553.96047 748.07166,553.82005 746.43869,553.42041 743.54364,552.78357 741.14446,550.76788 740.01461,548.02538 739.32691,546.35548 738.97807,544.56365 738.98839,542.75623 V 534.85674 H 739.04873 L 739.26673,534.92891 C 740.60436,535.37668 742.00389,535.60694 743.41361,535.61211 H 750.62751 C 750.69876,535.6207 750.77175,535.62153 750.84214,535.61379 751.36242,535.55964 751.74138,535.09302 751.68729,534.57305 V 527.43395 C 751.69244,527.41075 751.69232,527.38666 751.69232,527.36345 751.69489,526.81942 751.25898,526.37577 750.71638,526.36803 750.55498,526.36201 750.39389,526.36201 750.23679,526.36803 H 738.94476 V 514.62788 C 739.00056,513.43497 738.41241,512.30551 737.40874,511.66179 736.93397,511.36357 736.42428,511.12523 735.89454,510.95677 734.97462,510.70109 734.03509,510.53415 733.08747,510.45487 Z"
   style="display:inline;stroke-width:0.859" /><path
   id="path16123"
   d="M 651.40774,513.84565 C 644.24738,513.84565 638.32316,517.41283 638.32316,524.78343 638.32316,531.79994 643.57846,533.85126 643.57846,533.85126 V 533.97044 L 643.54659,533.99393 C 639.16193,535.51085 636.48195,539.84067 636.48195,544.34587 636.48195,551.36238 642.35109,556.80448 651.29037,556.80448 660.69243,556.80448 666.2514,551.18517 666.2514,542.70588 V 537.78926 H 669.17251 C 670.74624,537.78926 671.6224,536.91655 671.6224,535.33346 V 533.69682 C 671.6224,532.11888 670.75224,531.24103 669.17251,531.24103 H 666.2514 V 527.84856 C 666.2514,526.49666 665.37539,525.85942 663.79479,525.85942 H 661.28787 C 659.70726,525.85942 658.83293,526.64566 658.83293,528.22961 V 531.19235 H 652.2294 C 647.26354,531.19235 645.91937,528.06694 645.91937,525.69659 645.91937,522.64728 648.13939,520.14042 651.93763,520.14042 H 653.86773 C 655.44145,520.14042 656.31595,519.34395 656.31595,517.76687 V 516.30314 C 656.31595,514.72519 655.44145,513.84565 653.86773,513.84565 Z M 651.80183,537.76744 H 658.8195 V 542.27281 C 658.8195,547.30485 656.02208,549.87856 651.28199,549.87856 647.01411,549.87856 644.20393,547.18362 644.20393,543.8507 644.20393,539.8113 647.19223,537.76744 651.80183,537.76744 Z"
   style="display:inline;stroke-width:0.859" /><path
   id="path16422"
   d="M 417.77799,506.83748 417.79808,562.75345 H 476.90614 V 506.83748 Z M 485.96037,506.83748 V 562.75345 H 545.07683 V 506.83748 Z M 554.12103,506.86603 V 562.78199 H 613.23912 V 506.86603 Z M 587.42153,514.26699 C 588.26184,514.29161 589.1565,514.34503 590.10348,514.43484 590.10348,514.43484 594.63131,514.88408 601.17628,517.63258 V 525.04529 C 601.17628,525.04529 593.95137,520.59749 585.97925,520.50467 585.97925,520.50467 571.09875,520.21182 570.42032,534.81981 570.42032,534.81981 569.8751,548.26458 585.81173,549.05269 585.81173,549.05269 592.49121,549.86521 601.54149,544.06052 L 601.53644,551.73342 C 601.53644,551.73342 589.38984,558.97974 575.31012,553.40195 575.31012,553.40195 563.47641,549.05623 563.02784,534.83156 563.02784,534.83156 562.53666,520.19653 578.312,515.33122 578.312,515.33122 581.53939,514.09458 587.42153,514.26699 Z M 433.32681,514.71349 H 447.36969 C 460.02736,515.90125 459.23655,525.46663 459.23655,525.46663 459.28028,531.31343 454.12397,533.51889 454.12397,533.51889 463.17936,535.81275 462.87332,543.55358 462.87332,543.55358 462.87332,554.93435 449.41843,554.89423 449.41842,554.89423 H 433.31844 L 433.32681,514.71516 Z M 501.47573,514.71349 H 515.51523 C 528.17036,515.90125 527.38879,525.46663 527.38879,525.46663 527.42996,531.31343 522.27618,533.51889 522.27618,533.51889 531.3359,535.81275 531.02557,543.55358 531.02557,543.55358 531.02557,554.93435 517.57737,554.89423 517.57738,554.89423 H 501.4774 V 514.71516 Z M 508.59683,520.99315 V 531.38874 H 513.48664 C 513.48664,531.38874 520.07336,531.2995 520.07336,525.76038 L 520.07838,525.73856 C 520.07838,525.73856 520.3036,521.28364 514.33927,520.99315 Z M 440.45964,520.99483 V 531.39211 H 445.3411 C 445.3411,531.39211 451.92948,531.30122 451.92948,525.76038 L 451.93284,525.73856 C 451.93284,525.73856 452.15983,521.28274 446.19207,520.99483 Z M 440.44962,537.70533 V 548.68339 H 447.96271 C 447.96271,548.68339 455.49591,549.03977 455.49591,542.96607 L 455.51768,542.97446 C 455.51768,542.97446 455.74561,537.63571 447.98615,537.70533 Z M 508.5985,537.707 V 548.68339 H 516.1317 C 516.1317,548.68339 523.66155,549.03973 523.66155,542.96775 L 523.66657,542.97446 C 523.66657,542.97446 523.89019,537.63481 516.13673,537.707 Z"
   style="display:inline;stroke-width:0.858562" /></svg>
