<?xml version="1.0" encoding="utf-8"?>
<svg viewBox="0 0 111 36" xmlns="http://www.w3.org/2000/svg">
    <path fill="#f54997" d="M78.3 10.4l1.4-3.5H73l-4 12.9h-.1L64.6 6.9h-7.3l1 2.4h-.1c-1.7-2.1-4.5-2.9-7.6-2.9-2.9 0-4.4.4-6.9 1.1 0 0-1.5 4.6-1.6 4.8-.1.2.1.5.4.3 1.7-.8 3.9-1.7 6.7-1.7 2.4 0 4.4.7 4.5 3.4-.9-.2-2.1-.3-3.1-.3-2.9 0-7.5.5-9.3 3.7h-.1V0h-6.7v6.3h-.1C33.1 2.2 29.4 0 22.8 0h-8.4v7.1l2.9 5.5c.4.4.5.9 0 1.4l-2.9 5.6v7.1h7v-8.5h2.7c5.4 0 9-2.5 10.1-6.4h.1v14.9H41v-2.8h.1c1.2 2.2 3.8 3.1 6.6 3.2 3.4.1 5.3-1.6 6-2.1.2-.1.3-.2.3 0 0 .6.1 1.2.1 1.6h6.2c-.3-1.6-.4-3.1-.4-4.7v-7.4c0-.4 0-.8-.1-1.2h.1L65.3 27s-.9 3.1-3.7 3.1c-1.2 0-1.9-.2-2.9-.7-.2-.1-.3 0-.4.2l-1.6 5c1 .5 3.4 1.3 6 1.3 5.7 0 8.2-6.3 9.9-10.7l4.1-10.5h.1c-.1.6-.1 1.2-.1 1.9 0 6.5 4.9 10.4 11.4 10.4 2 0 4.1-.4 5.8-1 0 0 1.4-4.1 1.7-5 .1-.3-.2-.5-.4-.3-1.7.9-3.6 1.8-5.8 1.8-3.3 0-5.4-1.1-5.7-3.8h13.1v7.9h6.7v-8.4c0-4.3 2.3-6.2 4.9-6.2.6 0 1.1.2 1.1.2L111 7c0-.2 0-.3-.2-.4-.6-.1-1.3-.2-2-.2-2.9 0-5 1.6-6.2 4.1h-.1V6.9h-6.1v6.5h-.1c-1.1-4-3.9-6.9-9.3-6.9-3.7 0-6.8 1.4-8.7 3.9zm-55.1 2.7h-1.8v-8h1.8c2.4 0 4.3 1.3 4.3 4 0 2.8-1.9 4-4.3 4m26.2 9.5c-1.6 0-2.8-.8-2.8-2.2 0-1.9 1.8-2.6 4.1-2.6 1 0 2 .1 2.8.1.1 2.3-1.5 4.7-4.1 4.7m33.8-7.7c.1-2.3 1.3-4.1 3.7-4.1 2.7 0 3.7 1.9 3.7 4.1h-7.4z" />
    <path fill="#f54997" d="M6.6 0H0v6.7h6.6V3.9l10.7 9.4-10.7 9.5V10H0v16.7h6.6l14.8-13.4" />
</svg>